<svg width="32" height="32" viewBox="0 0 32 32" fill="none" xmlns="http://www.w3.org/2000/svg">
<path d="M28.1876 23.375C27.1951 22.375 24.7914 20.9156 23.6251 20.3275C22.1064 19.5625 21.9814 19.5 20.7876 20.3869C19.9914 20.9788 19.462 21.5075 18.5301 21.3088C17.5982 21.11 15.5732 19.9894 13.8001 18.2219C12.027 16.4544 10.8414 14.3706 10.642 13.4419C10.4426 12.5131 10.9801 11.99 11.5664 11.1919C12.3926 10.0669 12.3301 9.87938 11.6239 8.36063C11.0732 7.17938 9.57136 4.79813 8.56761 3.81063C7.49386 2.75 7.49386 2.9375 6.80199 3.225C6.23872 3.46199 5.69834 3.75007 5.18761 4.08563C4.18761 4.75 3.63261 5.30188 3.24449 6.13125C2.85636 6.96063 2.68199 8.905 4.68636 12.5463C6.69074 16.1875 8.09699 18.0494 11.0076 20.9519C13.9182 23.8544 16.1564 25.415 19.4282 27.25C23.4757 29.5169 25.0282 29.075 25.8601 28.6875C26.692 28.3 27.2464 27.75 27.912 26.75C28.2484 26.2401 28.5371 25.7004 28.7745 25.1375C29.0626 24.4481 29.2501 24.4481 28.1876 23.375Z" stroke="#FFCD39" stroke-width="2" stroke-miterlimit="10"/>
</svg>
