<?xml version="1.0" standalone="no"?>
<!DOCTYPE svg PUBLIC "-//W3C//DTD SVG 20010904//EN"
 "http://www.w3.org/TR/2001/REC-SVG-20010904/DTD/svg10.dtd">
<svg version="1.0" xmlns="http://www.w3.org/2000/svg"
 width="512.000000pt" height="512.000000pt" viewBox="0 0 512.000000 512.000000"
 preserveAspectRatio="xMidYMid meet">
<metadata>
Created by potrace 1.14, written by Peter Selinger 2001-2017
</metadata>
<g transform="translate(0.000000,512.000000) scale(0.100000,-0.100000)"
fill="#000000" stroke="none">
<path d="M2437 5114 c-2 -2 -21 -6 -43 -8 -57 -6 -171 -34 -233 -57 -74 -27
-108 -43 -466 -219 -446 -219 -816 -401 -1080 -530 -126 -62 -256 -130 -287
-151 -103 -70 -197 -178 -247 -284 -13 -27 -28 -57 -32 -66 -27 -57 -44 -160
-44 -269 0 -143 13 -203 65 -316 86 -187 187 -284 405 -392 137 -68 492 -242
700 -342 77 -37 266 -129 420 -205 506 -248 552 -268 671 -299 100 -25 124
-28 274 -31 164 -4 253 9 393 57 88 30 368 160 420 196 48 32 79 88 82 146 7
112 -66 200 -175 212 -60 6 -67 4 -235 -79 -120 -59 -202 -94 -240 -104 -179
-45 -320 -43 -471 6 -33 11 -168 73 -299 137 -132 64 -328 159 -435 211 -107
53 -271 133 -365 178 -501 243 -664 326 -702 359 -25 22 -55 64 -75 104 -30
60 -33 75 -33 157 0 82 3 97 33 157 20 40 50 82 76 105 46 40 64 49 526 276
162 80 444 218 625 307 553 272 611 299 692 322 96 26 265 32 356 11 123 -28
90 -13 827 -376 173 -85 455 -223 625 -306 171 -84 330 -162 354 -174 116 -58
187 -167 197 -304 11 -135 -39 -240 -151 -323 -66 -48 -98 -109 -94 -177 9
-169 179 -246 328 -147 143 95 251 250 298 426 24 89 23 300 -1 388 -51 188
-166 353 -309 444 -29 18 -151 82 -272 141 -121 59 -332 163 -470 230 -137 67
-403 198 -590 290 -412 203 -439 215 -540 247 -72 23 -100 30 -185 45 -32 6
-288 12 -293 7z"/>
<path d="M2498 3829 c-145 -33 -239 -168 -225 -322 10 -103 68 -187 166 -236
50 -26 152 -37 202 -23 35 9 52 2 430 -185 217 -107 439 -217 495 -244 152
-75 227 -157 258 -284 12 -48 15 -156 15 -555 0 -272 2 -505 5 -517 16 -72 72
-126 151 -144 98 -22 176 15 219 104 l25 52 -3 540 c-2 297 -7 556 -11 575
-23 114 -90 255 -163 346 -103 128 -152 158 -627 393 -242 120 -470 233 -507
250 -55 27 -69 38 -78 66 -19 57 -86 132 -143 160 -58 28 -146 38 -209 24z"/>
<path d="M937 2105 c-88 -22 -139 -95 -151 -215 -4 -36 -9 -78 -11 -95 -5 -35
-14 -120 -21 -190 -2 -27 -6 -59 -9 -70 -2 -11 -7 -56 -10 -100 -4 -44 -10
-84 -12 -89 -13 -21 -12 -284 2 -347 35 -165 101 -285 220 -405 103 -104 185
-151 394 -226 91 -33 189 -68 216 -78 28 -10 109 -39 180 -65 72 -26 159 -57
195 -70 309 -111 360 -126 494 -144 69 -10 272 -7 336 4 73 13 189 46 305 86
125 43 572 197 805 276 297 102 419 195 425 326 5 113 -74 198 -189 203 -63 3
-83 -5 -169 -65 -27 -18 -74 -42 -105 -53 -102 -36 -605 -209 -677 -233 -38
-12 -137 -46 -220 -75 -178 -61 -221 -71 -338 -76 -150 -6 -211 10 -667 176
-63 23 -126 45 -140 50 -81 25 -443 161 -477 179 -61 31 -133 108 -167 181
-29 60 -31 73 -31 170 1 58 4 132 9 165 10 84 24 201 31 275 2 14 6 50 9 80 4
30 9 73 12 95 14 124 13 184 -6 223 -44 91 -135 132 -233 107z"/>
</g>
</svg>
